<mxfile host="drawio-plugin" modified="2023-05-09T14:30:28.143Z" agent="5.0 (Windows NT 6.2; Win64; x64) AppleWebKit/537.36 (KHTML, like Gecko) Chrome/104.0.5112.102 Safari/537.36" etag="-RrPUGYI_YuetBvrMWbI" version="20.5.3" type="embed"><diagram id="C5RBs43oDa-KdzZeNtuy" name="Page-1"><mxGraphModel dx="1742" dy="1125" grid="1" gridSize="10" guides="1" tooltips="1" connect="1" arrows="1" fold="1" page="1" pageScale="1" pageWidth="827" pageHeight="1169" math="0" shadow="0"><root><mxCell id="WIyWlLk6GJQsqaUBKTNV-0"/><mxCell id="WIyWlLk6GJQsqaUBKTNV-1" parent="WIyWlLk6GJQsqaUBKTNV-0"/><mxCell id="a64Dg48uW7_J3_aK23f1-133" style="edgeStyle=orthogonalEdgeStyle;rounded=0;orthogonalLoop=1;jettySize=auto;html=1;dashed=1;" parent="WIyWlLk6GJQsqaUBKTNV-1" source="a64Dg48uW7_J3_aK23f1-0" target="a64Dg48uW7_J3_aK23f1-36" edge="1"><mxGeometry relative="1" as="geometry"><Array as="points"><mxPoint x="1110" y="120"/></Array></mxGeometry></mxCell><mxCell id="a64Dg48uW7_J3_aK23f1-134" style="edgeStyle=orthogonalEdgeStyle;rounded=0;orthogonalLoop=1;jettySize=auto;html=1;dashed=1;" parent="WIyWlLk6GJQsqaUBKTNV-1" source="a64Dg48uW7_J3_aK23f1-0" target="a64Dg48uW7_J3_aK23f1-33" edge="1"><mxGeometry relative="1" as="geometry"><Array as="points"><mxPoint x="1270" y="120"/></Array></mxGeometry></mxCell><mxCell id="a64Dg48uW7_J3_aK23f1-0" value="CustomerApplikation" style="swimlane;fontStyle=2;align=center;verticalAlign=top;childLayout=stackLayout;horizontal=1;startSize=26;horizontalStack=0;resizeParent=1;resizeLast=0;collapsible=1;marginBottom=0;rounded=0;shadow=0;strokeWidth=1;" parent="WIyWlLk6GJQsqaUBKTNV-1" vertex="1"><mxGeometry x="123" y="20" width="707" height="138" as="geometry"><mxRectangle x="230" y="140" width="160" height="26" as="alternateBounds"/></mxGeometry></mxCell><mxCell id="a64Dg48uW7_J3_aK23f1-1" value="" style="line;html=1;strokeWidth=1;align=left;verticalAlign=middle;spacingTop=-1;spacingLeft=3;spacingRight=3;rotatable=0;labelPosition=right;points=[];portConstraint=eastwest;" parent="a64Dg48uW7_J3_aK23f1-0" vertex="1"><mxGeometry y="26" width="707" height="8" as="geometry"/></mxCell><mxCell id="a64Dg48uW7_J3_aK23f1-2" value="main(args: String[]):void" style="text;align=left;verticalAlign=top;spacingLeft=4;spacingRight=4;overflow=hidden;rotatable=0;points=[[0,0.5],[1,0.5]];portConstraint=eastwest;" parent="a64Dg48uW7_J3_aK23f1-0" vertex="1"><mxGeometry y="34" width="707" height="26" as="geometry"/></mxCell><mxCell id="a64Dg48uW7_J3_aK23f1-3" value="commandLineRunner(customerRepository: CustomerRepository, addressRepository: AddressRepository): CommandLineRunner" style="text;align=left;verticalAlign=top;spacingLeft=4;spacingRight=4;overflow=hidden;rotatable=0;points=[[0,0.5],[1,0.5]];portConstraint=eastwest;" parent="a64Dg48uW7_J3_aK23f1-0" vertex="1"><mxGeometry y="60" width="707" height="26" as="geometry"/></mxCell><mxCell id="a64Dg48uW7_J3_aK23f1-4" style="edgeStyle=orthogonalEdgeStyle;rounded=0;orthogonalLoop=1;jettySize=auto;html=1;entryX=0;entryY=0.5;entryDx=0;entryDy=0;endArrow=open;endFill=0;" parent="WIyWlLk6GJQsqaUBKTNV-1" source="a64Dg48uW7_J3_aK23f1-7" target="a64Dg48uW7_J3_aK23f1-23" edge="1"><mxGeometry relative="1" as="geometry"/></mxCell><mxCell id="a64Dg48uW7_J3_aK23f1-5" value="1" style="edgeLabel;html=1;align=center;verticalAlign=middle;resizable=0;points=[];" parent="a64Dg48uW7_J3_aK23f1-4" vertex="1" connectable="0"><mxGeometry x="0.7597" y="1" relative="1" as="geometry"><mxPoint x="2" y="-7" as="offset"/></mxGeometry></mxCell><mxCell id="a64Dg48uW7_J3_aK23f1-6" value="cService" style="edgeLabel;html=1;align=center;verticalAlign=middle;resizable=0;points=[];" parent="a64Dg48uW7_J3_aK23f1-4" vertex="1" connectable="0"><mxGeometry x="-0.1896" y="2" relative="1" as="geometry"><mxPoint x="29" y="17" as="offset"/></mxGeometry></mxCell><mxCell id="a64Dg48uW7_J3_aK23f1-7" value="CustomerController" style="swimlane;fontStyle=0;align=center;verticalAlign=top;childLayout=stackLayout;horizontal=1;startSize=26;horizontalStack=0;resizeParent=1;resizeLast=0;collapsible=1;marginBottom=0;rounded=0;shadow=0;strokeWidth=1;" parent="WIyWlLk6GJQsqaUBKTNV-1" vertex="1"><mxGeometry x="10" y="210" width="350" height="170" as="geometry"><mxRectangle x="550" y="140" width="160" height="26" as="alternateBounds"/></mxGeometry></mxCell><mxCell id="a64Dg48uW7_J3_aK23f1-8" value="" style="line;html=1;strokeWidth=1;align=left;verticalAlign=middle;spacingTop=-1;spacingLeft=3;spacingRight=3;rotatable=0;labelPosition=right;points=[];portConstraint=eastwest;" parent="a64Dg48uW7_J3_aK23f1-7" vertex="1"><mxGeometry y="26" width="350" height="8" as="geometry"/></mxCell><mxCell id="a64Dg48uW7_J3_aK23f1-9" value="CustomerController(customerService: CustomerService)" style="text;align=left;verticalAlign=top;spacingLeft=4;spacingRight=4;overflow=hidden;rotatable=0;points=[[0,0.5],[1,0.5]];portConstraint=eastwest;" parent="a64Dg48uW7_J3_aK23f1-7" vertex="1"><mxGeometry y="34" width="350" height="26" as="geometry"/></mxCell><mxCell id="a64Dg48uW7_J3_aK23f1-10" value="getCustomerList(fields: String): MappingJacksonValue" style="text;align=left;verticalAlign=top;spacingLeft=4;spacingRight=4;overflow=hidden;rotatable=0;points=[[0,0.5],[1,0.5]];portConstraint=eastwest;" parent="a64Dg48uW7_J3_aK23f1-7" vertex="1"><mxGeometry y="60" width="350" height="26" as="geometry"/></mxCell><mxCell id="a64Dg48uW7_J3_aK23f1-11" value="getCustomer(c_id: long): MappingJacksonValue" style="text;align=left;verticalAlign=top;spacingLeft=4;spacingRight=4;overflow=hidden;rotatable=0;points=[[0,0.5],[1,0.5]];portConstraint=eastwest;" parent="a64Dg48uW7_J3_aK23f1-7" vertex="1"><mxGeometry y="86" width="350" height="26" as="geometry"/></mxCell><mxCell id="a64Dg48uW7_J3_aK23f1-12" value="postCustomer(cRequest: CustomerRequest): MappingJacksonValue" style="text;align=left;verticalAlign=top;spacingLeft=4;spacingRight=4;overflow=hidden;rotatable=0;points=[[0,0.5],[1,0.5]];portConstraint=eastwest;" parent="a64Dg48uW7_J3_aK23f1-7" vertex="1"><mxGeometry y="112" width="350" height="26" as="geometry"/></mxCell><mxCell id="a64Dg48uW7_J3_aK23f1-14" value="Die Startklasse von Java Spring, &lt;br&gt;diese ruft implizit die PolicyController auf durch Spring&lt;br&gt;" style="text;html=1;align=center;verticalAlign=middle;resizable=0;points=[];autosize=1;strokeColor=none;fillColor=none;" parent="WIyWlLk6GJQsqaUBKTNV-1" vertex="1"><mxGeometry x="860" y="50" width="310" height="40" as="geometry"/></mxCell><mxCell id="a64Dg48uW7_J3_aK23f1-15" style="edgeStyle=orthogonalEdgeStyle;rounded=0;orthogonalLoop=1;jettySize=auto;html=1;" parent="WIyWlLk6GJQsqaUBKTNV-1" source="a64Dg48uW7_J3_aK23f1-23" target="a64Dg48uW7_J3_aK23f1-33" edge="1"><mxGeometry relative="1" as="geometry"/></mxCell><mxCell id="a64Dg48uW7_J3_aK23f1-16" value="cRepository" style="edgeLabel;html=1;align=center;verticalAlign=middle;resizable=0;points=[];" parent="a64Dg48uW7_J3_aK23f1-15" vertex="1" connectable="0"><mxGeometry x="0.409" y="1" relative="1" as="geometry"><mxPoint x="10" y="16" as="offset"/></mxGeometry></mxCell><mxCell id="a64Dg48uW7_J3_aK23f1-17" value="1" style="edgeLabel;html=1;align=center;verticalAlign=middle;resizable=0;points=[];" parent="a64Dg48uW7_J3_aK23f1-15" vertex="1" connectable="0"><mxGeometry x="0.6913" y="2" relative="1" as="geometry"><mxPoint x="16" y="-13" as="offset"/></mxGeometry></mxCell><mxCell id="a64Dg48uW7_J3_aK23f1-18" style="edgeStyle=orthogonalEdgeStyle;rounded=0;orthogonalLoop=1;jettySize=auto;html=1;endArrow=open;endFill=0;dashed=1;" parent="WIyWlLk6GJQsqaUBKTNV-1" source="a64Dg48uW7_J3_aK23f1-23" target="a64Dg48uW7_J3_aK23f1-153" edge="1"><mxGeometry relative="1" as="geometry"><Array as="points"><mxPoint x="680" y="470"/><mxPoint x="160" y="470"/></Array><mxPoint x="160.03448275862047" y="540" as="targetPoint"/></mxGeometry></mxCell><mxCell id="a64Dg48uW7_J3_aK23f1-19" style="edgeStyle=orthogonalEdgeStyle;rounded=0;orthogonalLoop=1;jettySize=auto;html=1;dashed=1;endArrow=open;endFill=0;" parent="WIyWlLk6GJQsqaUBKTNV-1" source="a64Dg48uW7_J3_aK23f1-23" target="a64Dg48uW7_J3_aK23f1-52" edge="1"><mxGeometry relative="1" as="geometry"/></mxCell><mxCell id="a64Dg48uW7_J3_aK23f1-20" style="edgeStyle=orthogonalEdgeStyle;rounded=0;orthogonalLoop=1;jettySize=auto;html=1;dashed=1;endArrow=open;endFill=0;" parent="WIyWlLk6GJQsqaUBKTNV-1" source="a64Dg48uW7_J3_aK23f1-23" target="a64Dg48uW7_J3_aK23f1-141" edge="1"><mxGeometry relative="1" as="geometry"><mxPoint x="800" y="540" as="targetPoint"/></mxGeometry></mxCell><mxCell id="a64Dg48uW7_J3_aK23f1-23" value="CustomerService" style="swimlane;fontStyle=0;align=center;verticalAlign=top;childLayout=stackLayout;horizontal=1;startSize=26;horizontalStack=0;resizeParent=1;resizeLast=0;collapsible=1;marginBottom=0;rounded=0;shadow=0;strokeWidth=1;" parent="WIyWlLk6GJQsqaUBKTNV-1" vertex="1"><mxGeometry x="460" y="187" width="370" height="216" as="geometry"><mxRectangle x="550" y="140" width="160" height="26" as="alternateBounds"/></mxGeometry></mxCell><mxCell id="a64Dg48uW7_J3_aK23f1-25" value="notificationUrl: String" style="text;align=left;verticalAlign=top;spacingLeft=4;spacingRight=4;overflow=hidden;rotatable=0;points=[[0,0.5],[1,0.5]];portConstraint=eastwest;" parent="a64Dg48uW7_J3_aK23f1-23" vertex="1"><mxGeometry y="26" width="370" height="26" as="geometry"/></mxCell><mxCell id="a64Dg48uW7_J3_aK23f1-26" value="" style="line;html=1;strokeWidth=1;align=left;verticalAlign=middle;spacingTop=-1;spacingLeft=3;spacingRight=3;rotatable=0;labelPosition=right;points=[];portConstraint=eastwest;" parent="a64Dg48uW7_J3_aK23f1-23" vertex="1"><mxGeometry y="52" width="370" height="8" as="geometry"/></mxCell><mxCell id="a64Dg48uW7_J3_aK23f1-27" value="CustomerService(customerRepository:CustomerRepository, addressRepository:AddressRepository)" style="text;align=left;verticalAlign=top;spacingLeft=4;spacingRight=4;overflow=hidden;rotatable=0;points=[[0,0.5],[1,0.5]];portConstraint=eastwest;" parent="a64Dg48uW7_J3_aK23f1-23" vertex="1"><mxGeometry y="60" width="370" height="26" as="geometry"/></mxCell><mxCell id="a64Dg48uW7_J3_aK23f1-136" value="getCustomerList(fields: String): MappingJacksonValue" style="text;align=left;verticalAlign=top;spacingLeft=4;spacingRight=4;overflow=hidden;rotatable=0;points=[[0,0.5],[1,0.5]];portConstraint=eastwest;" parent="a64Dg48uW7_J3_aK23f1-23" vertex="1"><mxGeometry y="86" width="370" height="26" as="geometry"/></mxCell><mxCell id="a64Dg48uW7_J3_aK23f1-138" value="postCustomer(cRequest: CustomerRequest): MappingJacksonValue" style="text;align=left;verticalAlign=top;spacingLeft=4;spacingRight=4;overflow=hidden;rotatable=0;points=[[0,0.5],[1,0.5]];portConstraint=eastwest;" parent="a64Dg48uW7_J3_aK23f1-23" vertex="1"><mxGeometry y="112" width="370" height="26" as="geometry"/></mxCell><mxCell id="a64Dg48uW7_J3_aK23f1-137" value="getCustomer(c_id: long): MappingJacksonValue" style="text;align=left;verticalAlign=top;spacingLeft=4;spacingRight=4;overflow=hidden;rotatable=0;points=[[0,0.5],[1,0.5]];portConstraint=eastwest;" parent="a64Dg48uW7_J3_aK23f1-23" vertex="1"><mxGeometry y="138" width="370" height="26" as="geometry"/></mxCell><mxCell id="a64Dg48uW7_J3_aK23f1-32" style="edgeStyle=orthogonalEdgeStyle;rounded=0;orthogonalLoop=1;jettySize=auto;html=1;entryX=0;entryY=0.5;entryDx=0;entryDy=0;endArrow=block;endFill=0;" parent="WIyWlLk6GJQsqaUBKTNV-1" source="a64Dg48uW7_J3_aK23f1-33" target="a64Dg48uW7_J3_aK23f1-42" edge="1"><mxGeometry relative="1" as="geometry"/></mxCell><mxCell id="a64Dg48uW7_J3_aK23f1-33" value="&lt;&lt;interface&gt;&gt;&#10;CustomerRepository&lt;CustomerEntity, Long&gt;" style="swimlane;fontStyle=0;align=center;verticalAlign=top;childLayout=stackLayout;horizontal=1;startSize=50;horizontalStack=0;resizeParent=1;resizeLast=0;collapsible=1;marginBottom=0;rounded=0;shadow=0;strokeWidth=1;" parent="WIyWlLk6GJQsqaUBKTNV-1" vertex="1"><mxGeometry x="990" y="270" width="360" height="70" as="geometry"><mxRectangle x="550" y="140" width="160" height="26" as="alternateBounds"/></mxGeometry></mxCell><mxCell id="a64Dg48uW7_J3_aK23f1-34" value="" style="line;html=1;strokeWidth=1;align=left;verticalAlign=middle;spacingTop=-1;spacingLeft=3;spacingRight=3;rotatable=0;labelPosition=right;points=[];portConstraint=eastwest;" parent="a64Dg48uW7_J3_aK23f1-33" vertex="1"><mxGeometry y="50" width="360" height="8" as="geometry"/></mxCell><mxCell id="a64Dg48uW7_J3_aK23f1-35" style="edgeStyle=orthogonalEdgeStyle;rounded=0;orthogonalLoop=1;jettySize=auto;html=1;endArrow=block;endFill=0;" parent="WIyWlLk6GJQsqaUBKTNV-1" source="a64Dg48uW7_J3_aK23f1-36" target="a64Dg48uW7_J3_aK23f1-42" edge="1"><mxGeometry relative="1" as="geometry"/></mxCell><mxCell id="a64Dg48uW7_J3_aK23f1-36" value="&lt;&lt;interface&gt;&gt;&#10;AddressRepository&lt;AddressEntity, Long&gt;" style="swimlane;fontStyle=0;align=center;verticalAlign=top;childLayout=stackLayout;horizontal=1;startSize=40;horizontalStack=0;resizeParent=1;resizeLast=0;collapsible=1;marginBottom=0;rounded=0;shadow=0;strokeWidth=1;" parent="WIyWlLk6GJQsqaUBKTNV-1" vertex="1"><mxGeometry x="990" y="180" width="240" height="74" as="geometry"><mxRectangle x="550" y="140" width="160" height="26" as="alternateBounds"/></mxGeometry></mxCell><mxCell id="a64Dg48uW7_J3_aK23f1-37" value="" style="line;html=1;strokeWidth=1;align=left;verticalAlign=middle;spacingTop=-1;spacingLeft=3;spacingRight=3;rotatable=0;labelPosition=right;points=[];portConstraint=eastwest;" parent="a64Dg48uW7_J3_aK23f1-36" vertex="1"><mxGeometry y="40" width="240" height="8" as="geometry"/></mxCell><mxCell id="a64Dg48uW7_J3_aK23f1-39" style="edgeStyle=orthogonalEdgeStyle;rounded=0;orthogonalLoop=1;jettySize=auto;html=1;" parent="WIyWlLk6GJQsqaUBKTNV-1" source="a64Dg48uW7_J3_aK23f1-23" target="a64Dg48uW7_J3_aK23f1-36" edge="1"><mxGeometry relative="1" as="geometry"><mxPoint x="990" y="126.99999999999989" as="targetPoint"/></mxGeometry></mxCell><mxCell id="a64Dg48uW7_J3_aK23f1-40" value="aRepository" style="edgeLabel;html=1;align=center;verticalAlign=middle;resizable=0;points=[];" parent="a64Dg48uW7_J3_aK23f1-39" vertex="1" connectable="0"><mxGeometry x="0.7891" y="1" relative="1" as="geometry"><mxPoint x="-15" y="12" as="offset"/></mxGeometry></mxCell><mxCell id="a64Dg48uW7_J3_aK23f1-41" value="1" style="edgeLabel;html=1;align=center;verticalAlign=middle;resizable=0;points=[];" parent="a64Dg48uW7_J3_aK23f1-39" vertex="1" connectable="0"><mxGeometry x="0.8419" relative="1" as="geometry"><mxPoint x="9" y="-17" as="offset"/></mxGeometry></mxCell><mxCell id="a64Dg48uW7_J3_aK23f1-42" value="&lt;&lt;interface&gt;&gt;&#10;JpaRepository&lt;T,ID&gt;" style="swimlane;fontStyle=0;align=center;verticalAlign=top;childLayout=stackLayout;horizontal=1;startSize=40;horizontalStack=0;resizeParent=1;resizeLast=0;collapsible=1;marginBottom=0;rounded=0;shadow=0;strokeWidth=1;" parent="WIyWlLk6GJQsqaUBKTNV-1" vertex="1"><mxGeometry x="1440" y="192" width="160" height="50" as="geometry"><mxRectangle x="550" y="140" width="160" height="26" as="alternateBounds"/></mxGeometry></mxCell><mxCell id="a64Dg48uW7_J3_aK23f1-43" value="" style="line;html=1;strokeWidth=1;align=left;verticalAlign=middle;spacingTop=-1;spacingLeft=3;spacingRight=3;rotatable=0;labelPosition=right;points=[];portConstraint=eastwest;" parent="a64Dg48uW7_J3_aK23f1-42" vertex="1"><mxGeometry y="40" width="160" height="8" as="geometry"/></mxCell><mxCell id="a64Dg48uW7_J3_aK23f1-44" value="AddressEntity" style="swimlane;fontStyle=0;align=center;verticalAlign=top;childLayout=stackLayout;horizontal=1;startSize=26;horizontalStack=0;resizeParent=1;resizeLast=0;collapsible=1;marginBottom=0;rounded=0;shadow=0;strokeWidth=1;" parent="WIyWlLk6GJQsqaUBKTNV-1" vertex="1"><mxGeometry x="330" y="890" width="300" height="138" as="geometry"><mxRectangle x="550" y="140" width="160" height="26" as="alternateBounds"/></mxGeometry></mxCell><mxCell id="a64Dg48uW7_J3_aK23f1-45" value="id: long" style="text;align=left;verticalAlign=top;spacingLeft=4;spacingRight=4;overflow=hidden;rotatable=0;points=[[0,0.5],[1,0.5]];portConstraint=eastwest;" parent="a64Dg48uW7_J3_aK23f1-44" vertex="1"><mxGeometry y="26" width="300" height="26" as="geometry"/></mxCell><mxCell id="a64Dg48uW7_J3_aK23f1-140" value="city: String" style="text;align=left;verticalAlign=top;spacingLeft=4;spacingRight=4;overflow=hidden;rotatable=0;points=[[0,0.5],[1,0.5]];portConstraint=eastwest;" parent="a64Dg48uW7_J3_aK23f1-44" vertex="1"><mxGeometry y="52" width="300" height="26" as="geometry"/></mxCell><mxCell id="a64Dg48uW7_J3_aK23f1-46" value="street: String" style="text;align=left;verticalAlign=top;spacingLeft=4;spacingRight=4;overflow=hidden;rotatable=0;points=[[0,0.5],[1,0.5]];portConstraint=eastwest;" parent="a64Dg48uW7_J3_aK23f1-44" vertex="1"><mxGeometry y="78" width="300" height="26" as="geometry"/></mxCell><mxCell id="a64Dg48uW7_J3_aK23f1-47" value="postalCode: int" style="text;align=left;verticalAlign=top;spacingLeft=4;spacingRight=4;overflow=hidden;rotatable=0;points=[[0,0.5],[1,0.5]];portConstraint=eastwest;" parent="a64Dg48uW7_J3_aK23f1-44" vertex="1"><mxGeometry y="104" width="300" height="26" as="geometry"/></mxCell><mxCell id="a64Dg48uW7_J3_aK23f1-48" value="" style="line;html=1;strokeWidth=1;align=left;verticalAlign=middle;spacingTop=-1;spacingLeft=3;spacingRight=3;rotatable=0;labelPosition=right;points=[];portConstraint=eastwest;" parent="a64Dg48uW7_J3_aK23f1-44" vertex="1"><mxGeometry y="130" width="300" height="8" as="geometry"/></mxCell><mxCell id="a64Dg48uW7_J3_aK23f1-49" style="edgeStyle=orthogonalEdgeStyle;rounded=0;orthogonalLoop=1;jettySize=auto;html=1;endArrow=open;endFill=0;" parent="WIyWlLk6GJQsqaUBKTNV-1" source="a64Dg48uW7_J3_aK23f1-52" target="a64Dg48uW7_J3_aK23f1-44" edge="1"><mxGeometry relative="1" as="geometry"/></mxCell><mxCell id="a64Dg48uW7_J3_aK23f1-50" value="1" style="edgeLabel;html=1;align=center;verticalAlign=middle;resizable=0;points=[];" parent="a64Dg48uW7_J3_aK23f1-49" vertex="1" connectable="0"><mxGeometry x="0.7957" relative="1" as="geometry"><mxPoint x="-10" y="-14" as="offset"/></mxGeometry></mxCell><mxCell id="a64Dg48uW7_J3_aK23f1-51" value="address" style="edgeLabel;html=1;align=center;verticalAlign=middle;resizable=0;points=[];" parent="a64Dg48uW7_J3_aK23f1-49" vertex="1" connectable="0"><mxGeometry x="0.7267" relative="1" as="geometry"><mxPoint x="30" y="-9" as="offset"/></mxGeometry></mxCell><mxCell id="a64Dg48uW7_J3_aK23f1-52" value="CustomerEntity" style="swimlane;fontStyle=0;align=center;verticalAlign=top;childLayout=stackLayout;horizontal=1;startSize=26;horizontalStack=0;resizeParent=1;resizeLast=0;collapsible=1;marginBottom=0;rounded=0;shadow=0;strokeWidth=1;" parent="WIyWlLk6GJQsqaUBKTNV-1" vertex="1"><mxGeometry x="330" y="540" width="300" height="294" as="geometry"><mxRectangle x="550" y="140" width="160" height="26" as="alternateBounds"/></mxGeometry></mxCell><mxCell id="a64Dg48uW7_J3_aK23f1-139" value="id: long" style="text;align=left;verticalAlign=top;spacingLeft=4;spacingRight=4;overflow=hidden;rotatable=0;points=[[0,0.5],[1,0.5]];portConstraint=eastwest;" parent="a64Dg48uW7_J3_aK23f1-52" vertex="1"><mxGeometry y="26" width="300" height="26" as="geometry"/></mxCell><mxCell id="a64Dg48uW7_J3_aK23f1-53" value="firstName: String" style="text;align=left;verticalAlign=top;spacingLeft=4;spacingRight=4;overflow=hidden;rotatable=0;points=[[0,0.5],[1,0.5]];portConstraint=eastwest;" parent="a64Dg48uW7_J3_aK23f1-52" vertex="1"><mxGeometry y="52" width="300" height="26" as="geometry"/></mxCell><mxCell id="a64Dg48uW7_J3_aK23f1-54" value="lastName: String" style="text;align=left;verticalAlign=top;spacingLeft=4;spacingRight=4;overflow=hidden;rotatable=0;points=[[0,0.5],[1,0.5]];portConstraint=eastwest;" parent="a64Dg48uW7_J3_aK23f1-52" vertex="1"><mxGeometry y="78" width="300" height="26" as="geometry"/></mxCell><mxCell id="a64Dg48uW7_J3_aK23f1-55" value="formOfAdress: String" style="text;align=left;verticalAlign=top;spacingLeft=4;spacingRight=4;overflow=hidden;rotatable=0;points=[[0,0.5],[1,0.5]];portConstraint=eastwest;" parent="a64Dg48uW7_J3_aK23f1-52" vertex="1"><mxGeometry y="104" width="300" height="26" as="geometry"/></mxCell><mxCell id="a64Dg48uW7_J3_aK23f1-56" value="martialStatus: String" style="text;align=left;verticalAlign=top;spacingLeft=4;spacingRight=4;overflow=hidden;rotatable=0;points=[[0,0.5],[1,0.5]];portConstraint=eastwest;" parent="a64Dg48uW7_J3_aK23f1-52" vertex="1"><mxGeometry y="130" width="300" height="26" as="geometry"/></mxCell><mxCell id="a64Dg48uW7_J3_aK23f1-57" value="dateOfBirth: LocalDate" style="text;align=left;verticalAlign=top;spacingLeft=4;spacingRight=4;overflow=hidden;rotatable=0;points=[[0,0.5],[1,0.5]];portConstraint=eastwest;" parent="a64Dg48uW7_J3_aK23f1-52" vertex="1"><mxGeometry y="156" width="300" height="26" as="geometry"/></mxCell><mxCell id="a64Dg48uW7_J3_aK23f1-58" value="employmentStatus: String" style="text;align=left;verticalAlign=top;spacingLeft=4;spacingRight=4;overflow=hidden;rotatable=0;points=[[0,0.5],[1,0.5]];portConstraint=eastwest;" parent="a64Dg48uW7_J3_aK23f1-52" vertex="1"><mxGeometry y="182" width="300" height="26" as="geometry"/></mxCell><mxCell id="a64Dg48uW7_J3_aK23f1-59" value="phoneNumber: String" style="text;align=left;verticalAlign=top;spacingLeft=4;spacingRight=4;overflow=hidden;rotatable=0;points=[[0,0.5],[1,0.5]];portConstraint=eastwest;" parent="a64Dg48uW7_J3_aK23f1-52" vertex="1"><mxGeometry y="208" width="300" height="26" as="geometry"/></mxCell><mxCell id="a64Dg48uW7_J3_aK23f1-60" value="email: String" style="text;align=left;verticalAlign=top;spacingLeft=4;spacingRight=4;overflow=hidden;rotatable=0;points=[[0,0.5],[1,0.5]];portConstraint=eastwest;" parent="a64Dg48uW7_J3_aK23f1-52" vertex="1"><mxGeometry y="234" width="300" height="26" as="geometry"/></mxCell><mxCell id="a64Dg48uW7_J3_aK23f1-61" value="bankDetails: String" style="text;align=left;verticalAlign=top;spacingLeft=4;spacingRight=4;overflow=hidden;rotatable=0;points=[[0,0.5],[1,0.5]];portConstraint=eastwest;" parent="a64Dg48uW7_J3_aK23f1-52" vertex="1"><mxGeometry y="260" width="300" height="26" as="geometry"/></mxCell><mxCell id="a64Dg48uW7_J3_aK23f1-62" value="" style="line;html=1;strokeWidth=1;align=left;verticalAlign=middle;spacingTop=-1;spacingLeft=3;spacingRight=3;rotatable=0;labelPosition=right;points=[];portConstraint=eastwest;" parent="a64Dg48uW7_J3_aK23f1-52" vertex="1"><mxGeometry y="286" width="300" height="8" as="geometry"/></mxCell><mxCell id="a64Dg48uW7_J3_aK23f1-165" style="edgeStyle=orthogonalEdgeStyle;rounded=0;orthogonalLoop=1;jettySize=auto;html=1;" parent="WIyWlLk6GJQsqaUBKTNV-1" source="a64Dg48uW7_J3_aK23f1-141" target="a64Dg48uW7_J3_aK23f1-44" edge="1"><mxGeometry relative="1" as="geometry"><Array as="points"><mxPoint x="800" y="959"/></Array></mxGeometry></mxCell><mxCell id="a64Dg48uW7_J3_aK23f1-166" value="1" style="edgeLabel;html=1;align=center;verticalAlign=middle;resizable=0;points=[];" parent="a64Dg48uW7_J3_aK23f1-165" vertex="1" connectable="0"><mxGeometry x="0.8818" y="-2" relative="1" as="geometry"><mxPoint x="-4" y="-7" as="offset"/></mxGeometry></mxCell><mxCell id="a64Dg48uW7_J3_aK23f1-167" value="address" style="edgeLabel;html=1;align=center;verticalAlign=middle;resizable=0;points=[];" parent="a64Dg48uW7_J3_aK23f1-165" vertex="1" connectable="0"><mxGeometry x="0.817" relative="1" as="geometry"><mxPoint y="11" as="offset"/></mxGeometry></mxCell><mxCell id="a64Dg48uW7_J3_aK23f1-141" value="CustomerRequest" style="swimlane;fontStyle=0;align=center;verticalAlign=top;childLayout=stackLayout;horizontal=1;startSize=26;horizontalStack=0;resizeParent=1;resizeLast=0;collapsible=1;marginBottom=0;rounded=0;shadow=0;strokeWidth=1;" parent="WIyWlLk6GJQsqaUBKTNV-1" vertex="1"><mxGeometry x="650" y="540" width="300" height="270" as="geometry"><mxRectangle x="550" y="140" width="160" height="26" as="alternateBounds"/></mxGeometry></mxCell><mxCell id="a64Dg48uW7_J3_aK23f1-143" value="firstName: String" style="text;align=left;verticalAlign=top;spacingLeft=4;spacingRight=4;overflow=hidden;rotatable=0;points=[[0,0.5],[1,0.5]];portConstraint=eastwest;" parent="a64Dg48uW7_J3_aK23f1-141" vertex="1"><mxGeometry y="26" width="300" height="26" as="geometry"/></mxCell><mxCell id="a64Dg48uW7_J3_aK23f1-144" value="lastName: String" style="text;align=left;verticalAlign=top;spacingLeft=4;spacingRight=4;overflow=hidden;rotatable=0;points=[[0,0.5],[1,0.5]];portConstraint=eastwest;" parent="a64Dg48uW7_J3_aK23f1-141" vertex="1"><mxGeometry y="52" width="300" height="26" as="geometry"/></mxCell><mxCell id="a64Dg48uW7_J3_aK23f1-145" value="formOfAdress: String" style="text;align=left;verticalAlign=top;spacingLeft=4;spacingRight=4;overflow=hidden;rotatable=0;points=[[0,0.5],[1,0.5]];portConstraint=eastwest;" parent="a64Dg48uW7_J3_aK23f1-141" vertex="1"><mxGeometry y="78" width="300" height="26" as="geometry"/></mxCell><mxCell id="a64Dg48uW7_J3_aK23f1-146" value="martialStatus: String" style="text;align=left;verticalAlign=top;spacingLeft=4;spacingRight=4;overflow=hidden;rotatable=0;points=[[0,0.5],[1,0.5]];portConstraint=eastwest;" parent="a64Dg48uW7_J3_aK23f1-141" vertex="1"><mxGeometry y="104" width="300" height="26" as="geometry"/></mxCell><mxCell id="a64Dg48uW7_J3_aK23f1-147" value="dateOfBirth: LocalDate" style="text;align=left;verticalAlign=top;spacingLeft=4;spacingRight=4;overflow=hidden;rotatable=0;points=[[0,0.5],[1,0.5]];portConstraint=eastwest;" parent="a64Dg48uW7_J3_aK23f1-141" vertex="1"><mxGeometry y="130" width="300" height="26" as="geometry"/></mxCell><mxCell id="a64Dg48uW7_J3_aK23f1-148" value="employmentStatus: String" style="text;align=left;verticalAlign=top;spacingLeft=4;spacingRight=4;overflow=hidden;rotatable=0;points=[[0,0.5],[1,0.5]];portConstraint=eastwest;" parent="a64Dg48uW7_J3_aK23f1-141" vertex="1"><mxGeometry y="156" width="300" height="26" as="geometry"/></mxCell><mxCell id="a64Dg48uW7_J3_aK23f1-149" value="phoneNumber: String" style="text;align=left;verticalAlign=top;spacingLeft=4;spacingRight=4;overflow=hidden;rotatable=0;points=[[0,0.5],[1,0.5]];portConstraint=eastwest;" parent="a64Dg48uW7_J3_aK23f1-141" vertex="1"><mxGeometry y="182" width="300" height="26" as="geometry"/></mxCell><mxCell id="a64Dg48uW7_J3_aK23f1-150" value="email: String" style="text;align=left;verticalAlign=top;spacingLeft=4;spacingRight=4;overflow=hidden;rotatable=0;points=[[0,0.5],[1,0.5]];portConstraint=eastwest;" parent="a64Dg48uW7_J3_aK23f1-141" vertex="1"><mxGeometry y="208" width="300" height="26" as="geometry"/></mxCell><mxCell id="a64Dg48uW7_J3_aK23f1-151" value="bankDetails: String" style="text;align=left;verticalAlign=top;spacingLeft=4;spacingRight=4;overflow=hidden;rotatable=0;points=[[0,0.5],[1,0.5]];portConstraint=eastwest;" parent="a64Dg48uW7_J3_aK23f1-141" vertex="1"><mxGeometry y="234" width="300" height="26" as="geometry"/></mxCell><mxCell id="a64Dg48uW7_J3_aK23f1-152" value="" style="line;html=1;strokeWidth=1;align=left;verticalAlign=middle;spacingTop=-1;spacingLeft=3;spacingRight=3;rotatable=0;labelPosition=right;points=[];portConstraint=eastwest;" parent="a64Dg48uW7_J3_aK23f1-141" vertex="1"><mxGeometry y="260" width="300" height="8" as="geometry"/></mxCell><mxCell id="a64Dg48uW7_J3_aK23f1-164" style="edgeStyle=orthogonalEdgeStyle;rounded=0;orthogonalLoop=1;jettySize=auto;html=1;" parent="WIyWlLk6GJQsqaUBKTNV-1" source="a64Dg48uW7_J3_aK23f1-153" target="a64Dg48uW7_J3_aK23f1-44" edge="1"><mxGeometry relative="1" as="geometry"><Array as="points"><mxPoint x="160" y="959"/></Array></mxGeometry></mxCell><mxCell id="a64Dg48uW7_J3_aK23f1-168" value="1" style="edgeLabel;html=1;align=center;verticalAlign=middle;resizable=0;points=[];" parent="a64Dg48uW7_J3_aK23f1-164" vertex="1" connectable="0"><mxGeometry x="0.8501" y="-1" relative="1" as="geometry"><mxPoint x="14" y="-10" as="offset"/></mxGeometry></mxCell><mxCell id="a64Dg48uW7_J3_aK23f1-169" value="address" style="edgeLabel;html=1;align=center;verticalAlign=middle;resizable=0;points=[];" parent="a64Dg48uW7_J3_aK23f1-164" vertex="1" connectable="0"><mxGeometry x="0.8501" y="2" relative="1" as="geometry"><mxPoint y="13" as="offset"/></mxGeometry></mxCell><mxCell id="a64Dg48uW7_J3_aK23f1-153" value="MailCustomerEntity" style="swimlane;fontStyle=0;align=center;verticalAlign=top;childLayout=stackLayout;horizontal=1;startSize=26;horizontalStack=0;resizeParent=1;resizeLast=0;collapsible=1;marginBottom=0;rounded=0;shadow=0;strokeWidth=1;" parent="WIyWlLk6GJQsqaUBKTNV-1" vertex="1"><mxGeometry x="10" y="540" width="300" height="270" as="geometry"><mxRectangle x="550" y="140" width="160" height="26" as="alternateBounds"/></mxGeometry></mxCell><mxCell id="a64Dg48uW7_J3_aK23f1-154" value="firstName: String" style="text;align=left;verticalAlign=top;spacingLeft=4;spacingRight=4;overflow=hidden;rotatable=0;points=[[0,0.5],[1,0.5]];portConstraint=eastwest;" parent="a64Dg48uW7_J3_aK23f1-153" vertex="1"><mxGeometry y="26" width="300" height="26" as="geometry"/></mxCell><mxCell id="a64Dg48uW7_J3_aK23f1-155" value="lastName: String" style="text;align=left;verticalAlign=top;spacingLeft=4;spacingRight=4;overflow=hidden;rotatable=0;points=[[0,0.5],[1,0.5]];portConstraint=eastwest;" parent="a64Dg48uW7_J3_aK23f1-153" vertex="1"><mxGeometry y="52" width="300" height="26" as="geometry"/></mxCell><mxCell id="a64Dg48uW7_J3_aK23f1-156" value="formOfAdress: String" style="text;align=left;verticalAlign=top;spacingLeft=4;spacingRight=4;overflow=hidden;rotatable=0;points=[[0,0.5],[1,0.5]];portConstraint=eastwest;" parent="a64Dg48uW7_J3_aK23f1-153" vertex="1"><mxGeometry y="78" width="300" height="26" as="geometry"/></mxCell><mxCell id="a64Dg48uW7_J3_aK23f1-157" value="martialStatus: String" style="text;align=left;verticalAlign=top;spacingLeft=4;spacingRight=4;overflow=hidden;rotatable=0;points=[[0,0.5],[1,0.5]];portConstraint=eastwest;" parent="a64Dg48uW7_J3_aK23f1-153" vertex="1"><mxGeometry y="104" width="300" height="26" as="geometry"/></mxCell><mxCell id="a64Dg48uW7_J3_aK23f1-158" value="dateOfBirth: LocalDate" style="text;align=left;verticalAlign=top;spacingLeft=4;spacingRight=4;overflow=hidden;rotatable=0;points=[[0,0.5],[1,0.5]];portConstraint=eastwest;" parent="a64Dg48uW7_J3_aK23f1-153" vertex="1"><mxGeometry y="130" width="300" height="26" as="geometry"/></mxCell><mxCell id="a64Dg48uW7_J3_aK23f1-159" value="employmentStatus: String" style="text;align=left;verticalAlign=top;spacingLeft=4;spacingRight=4;overflow=hidden;rotatable=0;points=[[0,0.5],[1,0.5]];portConstraint=eastwest;" parent="a64Dg48uW7_J3_aK23f1-153" vertex="1"><mxGeometry y="156" width="300" height="26" as="geometry"/></mxCell><mxCell id="a64Dg48uW7_J3_aK23f1-160" value="phoneNumber: String" style="text;align=left;verticalAlign=top;spacingLeft=4;spacingRight=4;overflow=hidden;rotatable=0;points=[[0,0.5],[1,0.5]];portConstraint=eastwest;" parent="a64Dg48uW7_J3_aK23f1-153" vertex="1"><mxGeometry y="182" width="300" height="26" as="geometry"/></mxCell><mxCell id="a64Dg48uW7_J3_aK23f1-161" value="email: String" style="text;align=left;verticalAlign=top;spacingLeft=4;spacingRight=4;overflow=hidden;rotatable=0;points=[[0,0.5],[1,0.5]];portConstraint=eastwest;" parent="a64Dg48uW7_J3_aK23f1-153" vertex="1"><mxGeometry y="208" width="300" height="26" as="geometry"/></mxCell><mxCell id="a64Dg48uW7_J3_aK23f1-162" value="bankDetails: String" style="text;align=left;verticalAlign=top;spacingLeft=4;spacingRight=4;overflow=hidden;rotatable=0;points=[[0,0.5],[1,0.5]];portConstraint=eastwest;" parent="a64Dg48uW7_J3_aK23f1-153" vertex="1"><mxGeometry y="234" width="300" height="26" as="geometry"/></mxCell><mxCell id="a64Dg48uW7_J3_aK23f1-163" value="" style="line;html=1;strokeWidth=1;align=left;verticalAlign=middle;spacingTop=-1;spacingLeft=3;spacingRight=3;rotatable=0;labelPosition=right;points=[];portConstraint=eastwest;" parent="a64Dg48uW7_J3_aK23f1-153" vertex="1"><mxGeometry y="260" width="300" height="8" as="geometry"/></mxCell></root></mxGraphModel></diagram></mxfile>